<svg width="93" height="78" viewBox="0 0 93 78" fill="none" xmlns="http://www.w3.org/2000/svg">
<path d="M58 0C56.8333 0.166667 54.6 1.5 55 5.5C55.5 10.5 53 11.5 51 12C49 12.5 47.5 13 48 18.5C48.5 24 45 24.5 42.5 25C40 25.5 39 26.5 39.5 35" stroke="#AE8459" stroke-width="2" stroke-linecap="round" stroke-linejoin="round"/>
<path d="M92 49C91.5 49.8333 89.7 51.2 86.5 50C82.5 48.5 79.5 48.5 77.5 53C75.5 57.5 75 61 69 59C63 57 61.5 59 60.5 63C59.5 67 57.5 69.5 53 67.5C48.5 65.5 44 65.5 43 70C42 74.5 42 76.5 38.5 76" stroke="#E08345" stroke-width="2" stroke-linecap="round" stroke-linejoin="round"/>
<path d="M6 28.5C5.83333 29.6667 5.8 32.4 7 34C8.5 36 8 37 5.5 38.5C3 40 3.5 42 5 44.5C6.5 47 5.5 47.5 3.5 49C1.5 50.5 1 51 3 53.5C4.6 55.5 3.33333 57.6667 2.5 58.5" stroke="#F8F8F8" stroke-width="2" stroke-linecap="round" stroke-linejoin="round"/>
</svg>
