<svg xmlns="http://www.w3.org/2000/svg" width="32" height="32" viewBox="0 0 32 32" fill="none">
  <g transform="translate(-18, -2)">
    <circle cx="34" cy="18" r="15.5" fill="currentColor" stroke="currentColor"/>
  <path opacity="0.7" d="M40.2222 11H27.7778C27.5715 11 27.3737 11.0819 27.2278 11.2278C27.0819 11.3737 27 11.5715 27 11.7778V24.2222C27 24.4285 27.0819 24.6263 27.2278 24.7722C27.3737 24.9181 27.5715 25 27.7778 25H40.2222C40.4285 25 40.6263 24.9181 40.7722 24.7722C40.9181 24.6263 41 24.4285 41 24.2222V11.7778C41 11.5715 40.9181 11.3737 40.7722 11.2278C40.6263 11.0819 40.4285 11 40.2222 11ZM31.1526 22.9288H29.0743V16.2477H31.1526V22.9288ZM30.1134 15.3353C29.7941 15.3353 29.4879 15.2085 29.2621 14.9827C29.0363 14.7569 28.9094 14.4507 28.9094 14.1313C28.9094 13.812 29.0363 13.5058 29.2621 13.28C29.4879 13.0542 29.7941 12.9273 30.1134 12.9273C30.4328 12.9273 30.739 13.0542 30.9648 13.28C31.1906 13.5058 31.3174 13.812 31.3174 14.1313C31.3174 14.4507 31.1906 14.7569 30.9648 14.9827C30.739 15.2085 30.4328 15.3353 30.1134 15.3353ZM38.9296 22.9288H36.8537V19.68C36.8537 18.9053 36.8397 17.909 35.7741 17.909C34.693 17.909 34.5289 18.7537 34.5289 19.6256V22.9296H32.4546V16.2484H34.4457V17.1616H34.4744C34.7506 16.6366 35.4288 16.0828 36.4376 16.0828C38.5407 16.0828 38.9288 17.4657 38.9288 19.2654V22.9288H38.9296Z" fill="#000958"/>
   </g>
</svg>